<svg xmlns="http://www.w3.org/2000/svg" version="1.1" xmlns:xlink="http://www.w3.org/1999/xlink" xmlns:svgjs="http://svgjs.dev/svgjs" width="2000" height="671" viewBox="0 0 2000 671"><g transform="matrix(1,0,0,1,-1.2121212121212466,-0.9380307053586421)"><svg viewBox="0 0 396 133" data-background-color="#ed2647" preserveAspectRatio="xMidYMid meet" height="671" width="2000" xmlns="http://www.w3.org/2000/svg" xmlns:xlink="http://www.w3.org/1999/xlink"><g id="tight-bounds" transform="matrix(1,0,0,1,0.2400000000000091,0.1859332220876695)"><svg viewBox="0 0 395.52 132.6281266294288" height="132.6281266294288" width="395.52"><g><svg viewBox="0 0 628.3901782373852 210.71554442748092" height="132.6281266294288" width="395.52"><g transform="matrix(1,0,0,1,0,29.122047022900773)"><svg viewBox="0 0 395.52 152.47145038167938" height="152.47145038167938" width="395.52"><g><svg viewBox="0 0 395.52 152.47145038167938" height="152.47145038167938" width="395.52"><g><svg viewBox="0 0 395.52 152.47145038167938" height="152.47145038167938" width="395.52"><g transform="matrix(1,0,0,1,0,0)"><svg width="395.52" viewBox="0.75 -40 104.79000091552734 40.400001525878906" height="152.47145038167938" data-palette-color="#ffffff"><path d="M17.35-34.65L17.35-2Q17.35 0.4 14.35 0.4L14.35 0.4Q11.4 0.4 11.4-2L11.4-2 11.4-34.65 2.65-34.65Q0.85-34.65 0.75-37.2L0.75-37.2Q0.75-39.7 2.65-39.7L2.65-39.7 26.1-39.7Q28-39.7 27.9-37.2L27.9-37.2Q27.9-34.65 26.1-34.65L26.1-34.65 17.35-34.65ZM40.35-39.7L51.25-39.7Q52.55-39.7 53.95-39.15 55.35-38.6 56.65-37.75L56.65-37.75 56.6-37.75Q57.9-36.8 58.6-35.27 59.3-33.75 59.3-31.75L59.3-31.75 59.3-8Q59.3-3.95 56.6-1.95L56.6-1.95Q55.3-1 53.92-0.48 52.55 0.05 51.25 0.05L51.25 0.05 40.35 0.05Q39.05 0.05 37.67-0.48 36.3-1 35-1.95L35-1.95Q33.7-2.95 33-4.42 32.3-5.9 32.3-8L32.3-8 32.3-31.75Q32.3-33.75 33-35.27 33.7-36.8 35-37.75L35-37.75 34.95-37.75Q36.25-38.6 37.65-39.15 39.05-39.7 40.35-39.7L40.35-39.7ZM41.6-5L50-5Q51.85-5 52.6-6.05 53.35-7.1 53.35-8.4L53.35-8.4 53.35-31.3Q53.35-32.55 52.6-33.6 51.85-34.65 50-34.65L50-34.65 41.6-34.65Q39.75-34.65 39-33.6 38.25-32.55 38.25-31.3L38.25-31.3 38.25-8.4Q38.25-7.1 39-6.05 39.75-5 41.6-5L41.6-5ZM72.75-21.2L88-39.1Q88.75-40 89.69-40L89.69-40Q90.75-40 91.84-39.05L91.84-39.05Q92.39-38.5 92.77-37.95 93.14-37.4 93.14-36.85L93.14-36.85Q93.14-35.95 92.5-35.3L92.5-35.3 85.8-27.5 72.75-12.15 72.75-2.1Q72.75 0.3 69.75 0.3L69.75 0.3Q66.8 0.3 66.8-2.1L66.8-2.1 66.8-37.55Q66.8-39.95 69.75-39.95L69.75-39.95Q72.75-39.95 72.75-37.55L72.75-37.55 72.75-21.2ZM90.39-1.5L80.89-15.35Q80.39-16.05 80.39-17.05L80.39-17.05Q80.39-18.55 81.64-19.45L81.64-19.45 81.59-19.45Q82.59-20.15 83.59-20.15L83.59-20.15Q84.55-20.15 85.19-19.05L85.19-19.05 94.84-4.95 94.8-5Q95.25-4.3 95.25-3.5L95.25-3.5Q95.25-2.2 93.94-1.2L93.94-1.2 94-1.2Q93.44-0.85 92.94-0.65 92.44-0.45 92.05-0.45L92.05-0.45Q91.64-0.45 91.22-0.75 90.8-1.05 90.39-1.5L90.39-1.5ZM105.54-37.55L105.54-2.1Q105.54 0.3 102.54 0.3L102.54 0.3Q99.59 0.3 99.59-2.1L99.59-2.1 99.59-37.55Q99.59-39.95 102.54-39.95L102.54-39.95Q105.54-39.95 105.54-37.55L105.54-37.55Z" opacity="1" transform="matrix(1,0,0,1,0,0)" fill="#ffffff" class="undefined-text-0" data-fill-palette-color="primary" id="text-0"></path></svg></g></svg></g></svg></g></svg></g><g transform="matrix(1,0,0,1,431.5148501203053,0)"><svg viewBox="0 0 196.87532811707982 210.71554442748092" height="210.71554442748092" width="196.87532811707982"><g><svg xmlns="http://www.w3.org/2000/svg" xmlns:xlink="http://www.w3.org/1999/xlink" version="1.1" x="0" y="0" viewBox="13.937541961669922 11.630836486816406 72.12184143066406 77.19196319580078" enable-background="new 0 0 100 100" xml:space="preserve" height="210.71554442748092" width="196.87532811707982" class="icon-icon-0" data-fill-palette-color="accent" id="icon-0"><g fill="#ffffff" data-fill-palette-color="accent"><path d="M33.077 27.942c0.308 0.153 0.655 0.326 1.019 0.509l2.296 1.126c-0.355 0.492-0.624 0.957-1.707 2.325-2.138 2.7-6.077 7.674-5.849 11.137 1.032-0.202 3.505-1.689 5.196-2.708 3.144-1.893 6.113-3.681 8.296-3.681 0.008 0 0.014 0 0.021 0 3.32 0.019 4.741 4.207 5.995 7.902 0.39 1.147 0.937 2.764 1.39 3.533 0.29-1.005 0.449-3.068 0.554-4.402 0.16-2.062 0.312-4.011 0.776-5.299 1.152-3.18 7.52-1.705 16.391 0.726 0.699 0.192 1.356 0.372 1.94 0.526-1.333-1.716-3.746-4.327-5.234-5.937-1.702-1.842-3.068-3.564-3.676-4.433 0.51-0.333 1.079-0.684 1.541-0.969 2.598-1.598 4.086-2.562 4.461-3.797 0.149-0.496 0.076-1.027-0.2-1.457-0.505-0.783-1.456-0.909-1.77-0.951-3.062-0.406-12.854 1.427-16.77 2.67 0.408-4.805 1.972-8.129-0.823-12.009-1.954-2.711-4.21 0.099-2.819 2.03 1.934 2.683 0.659 4.966 0.126 10.278-0.176-0.076-0.367-0.16-0.57-0.25-1.188-0.526-2.81-1.245-5.365-2.023-1.621-0.494-3.142-0.837-4.518-1.02-3.556-0.471-5.159 0.257-5.443 0.408l-0.421 0.223-0.218 0.423c-0.215 0.418-0.251 0.901-0.101 1.358C27.964 25.313 29.314 26.069 33.077 27.942z" fill="#ffffff" data-fill-palette-color="accent"></path><path d="M64.999 30.876c0.305 0.375 0.63 0.759 0.982 1.14 6.025 6.517 7.434 8.346 6.631 9.766-0.171 0.302-0.702 0.978-1.976 0.715-0.9-0.186-2.263-0.56-3.84-0.992-2.559-0.702-5.742-1.574-8.477-2.069-3.877-0.702-4.794-0.256-4.939-0.159-0.34 0.984-0.482 2.821-0.62 4.599-0.282 3.629-0.521 5.895-1.837 6.745-0.316 0.204-0.67 0.309-1.038 0.309-0.237 0-0.479-0.043-0.718-0.131-1.512-0.544-2.246-2.709-3.175-5.449-0.889-2.62-2.107-6.208-3.657-6.217-0.003 0-0.007 0-0.01 0-1.491 0-4.553 1.844-7.014 3.326-3.892 2.343-6.17 3.631-7.759 2.86-0.373-0.181-1.021-0.647-1.157-1.729-0.544-4.326 3.424-9.534 6.028-12.831-9.964 4.359-16.742 12.703-18.205 22.458-0.977 6.518 0.7 15.043 3.456 19.47 3.283 5.271 8.783 9.41 16.951 12.261 3.91 1.364 9.208 2.862 14.19 3.516 19.747 2.594 34.822-9.172 37.02-25.753C87.589 49.484 78.911 36.751 64.999 30.876zM80.696 62.006c-0.329 1.646-1.117 4.933-2.694 8.439-2.689 5.977-8.595 8.816-9.785 8.659 0 0 0 0-0.001 0-0.103-0.015-0.199-0.04-0.29-0.082-0.304-0.137-0.507-0.414-0.542-0.742-0.063-0.601 0.312-0.879 1.219-1.551 1.58-1.169 4.87-3.603 6.666-7.595 1.479-3.288 2.409-6.67 3.026-8.907 0.725-2.633 0.943-3.426 1.915-3.298l0.129 0.018 0.137 0.058C80.923 57.208 81.598 57.511 80.696 62.006z" fill="#ffffff" data-fill-palette-color="accent"></path></g></svg></g></svg></g></svg></g><defs></defs></svg><rect width="395.52" height="132.6281266294288" fill="none" stroke="none" visibility="hidden"></rect></g></svg></g></svg>